<svg width="16" height="16" viewBox="0 0 16 16" fill="none" xmlns="http://www.w3.org/2000/svg">
<path d="M10.7935 1.33398H5.20683C2.78016 1.33398 1.3335 2.78065 1.3335 5.20732V10.7873C1.3335 13.2207 2.78016 14.6673 5.20683 14.6673H10.7868C13.2135 14.6673 14.6602 13.2207 14.6602 10.794V5.20732C14.6668 2.78065 13.2202 1.33398 10.7935 1.33398Z" fill="#FFCB08"/>
<path d="M5.88012 6.50029C5.31346 6.50029 4.74679 6.28695 4.31346 5.85362C4.12012 5.66029 4.12012 5.34029 4.31346 5.14695C4.50679 4.95362 4.82679 4.95362 5.02012 5.14695C5.49346 5.62029 6.26679 5.62029 6.74012 5.14695C6.93346 4.95362 7.25346 4.95362 7.44679 5.14695C7.64012 5.34029 7.64012 5.66029 7.44679 5.85362C7.01346 6.28029 6.44679 6.50029 5.88012 6.50029Z" fill="white"/>
<path d="M10.1199 6.50029C9.5532 6.50029 8.98654 6.28695 8.5532 5.85362C8.35987 5.66029 8.35987 5.34029 8.5532 5.14695C8.74654 4.95362 9.06654 4.95362 9.25987 5.14695C9.7332 5.62029 10.5065 5.62029 10.9799 5.14695C11.1732 4.95362 11.4932 4.95362 11.6865 5.14695C11.8799 5.34029 11.8799 5.66029 11.6865 5.85362C11.2532 6.28029 10.6865 6.50029 10.1199 6.50029Z" fill="white"/>
<path d="M10.4001 8.41406H5.60008C5.13342 8.41406 4.75342 8.79406 4.75342 9.2674C4.75342 11.0607 6.21342 12.5207 8.00675 12.5207C9.80009 12.5207 11.2601 11.0607 11.2601 9.2674C11.2534 8.80073 10.8668 8.41406 10.4001 8.41406Z" fill="white"/>
</svg>
