<svg width="55" height="36" viewBox="0 0 55 36" fill="none" xmlns="http://www.w3.org/2000/svg">
<g clip-path="url(#clip0_4281_5858)">
<path d="M49.3137 8.21751H29.2112C29.0044 8.22622 28.809 8.31394 28.6658 8.46234C28.5225 8.61075 28.4426 8.80837 28.4426 9.01394C28.4426 9.2195 28.5225 9.41712 28.6658 9.56553C28.809 9.71393 29.0044 9.80165 29.2112 9.81036H49.3137C49.4219 9.81491 49.5299 9.79769 49.6312 9.75972C49.7324 9.72175 49.825 9.66381 49.9031 9.58941C49.9813 9.51501 50.0435 9.42567 50.086 9.32677C50.1285 9.22787 50.1504 9.12146 50.1504 9.01394C50.1504 8.90641 50.1285 8.8 50.086 8.7011C50.0435 8.6022 49.9813 8.51286 49.9031 8.43846C49.825 8.36405 49.7324 8.30612 49.6312 8.26815C49.5299 8.23018 49.4219 8.21296 49.3137 8.21751Z" fill="#514D56"/>
<path d="M49.3137 13.9949H44.8234C44.7153 13.9903 44.6073 14.0075 44.506 14.0455C44.4047 14.0835 44.3122 14.1414 44.234 14.2158C44.1559 14.2902 44.0937 14.3795 44.0512 14.4784C44.0087 14.5773 43.9868 14.6838 43.9868 14.7913C43.9868 14.8988 44.0087 15.0052 44.0512 15.1041C44.0937 15.203 44.1559 15.2924 44.234 15.3668C44.3122 15.4412 44.4047 15.4991 44.506 15.5371C44.6073 15.575 44.7153 15.5923 44.8234 15.5877H49.3137C49.4219 15.5923 49.5299 15.575 49.6312 15.5371C49.7324 15.4991 49.825 15.4412 49.9031 15.3668C49.9813 15.2924 50.0435 15.203 50.086 15.1041C50.1285 15.0052 50.1504 14.8988 50.1504 14.7913C50.1504 14.6838 50.1285 14.5773 50.086 14.4784C50.0435 14.3795 49.9813 14.2902 49.9031 14.2158C49.825 14.1414 49.7324 14.0835 49.6312 14.0455C49.5299 14.0075 49.4219 13.9903 49.3137 13.9949Z" fill="#514D56"/>
<path d="M29.2112 15.587H41.6157C41.8225 15.5783 42.0179 15.4906 42.1611 15.3422C42.3044 15.1938 42.3843 14.9961 42.3843 14.7906C42.3843 14.585 42.3044 14.3874 42.1611 14.239C42.0179 14.0906 41.8225 14.0028 41.6157 13.9941H29.2112C29.0044 14.0028 28.809 14.0906 28.6658 14.239C28.5225 14.3874 28.4426 14.585 28.4426 14.7906C28.4426 14.9961 28.5225 15.1938 28.6658 15.3422C28.809 15.4906 29.0044 15.5783 29.2112 15.587Z" fill="#514D56"/>
<path d="M49.3137 19.7742H29.2112C29.0044 19.7829 28.809 19.8706 28.6658 20.019C28.5225 20.1674 28.4426 20.365 28.4426 20.5706C28.4426 20.7761 28.5225 20.9738 28.6658 21.1222C28.809 21.2706 29.0044 21.3583 29.2112 21.367H49.3137C49.4219 21.3716 49.5299 21.3543 49.6312 21.3164C49.7324 21.2784 49.825 21.2205 49.9031 21.1461C49.9813 21.0717 50.0435 20.9823 50.086 20.8834C50.1285 20.7845 50.1504 20.6781 50.1504 20.5706C50.1504 20.4631 50.1285 20.3566 50.086 20.2577C50.0435 20.1588 49.9813 20.0695 49.9031 19.9951C49.825 19.9207 49.7324 19.8628 49.6312 19.8248C49.5299 19.7868 49.4219 19.7696 49.3137 19.7742Z" fill="#514D56"/>
<path d="M40.1184 25.5508H29.2112C29.0044 25.5595 28.809 25.6472 28.6658 25.7956C28.5225 25.944 28.4426 26.1416 28.4426 26.3472C28.4426 26.5528 28.5225 26.7504 28.6658 26.8988C28.809 27.0472 29.0044 27.1349 29.2112 27.1436H40.1184C40.3252 27.1349 40.5207 27.0472 40.6639 26.8988C40.8071 26.7504 40.8871 26.5528 40.8871 26.3472C40.8871 26.1416 40.8071 25.944 40.6639 25.7956C40.5207 25.6472 40.3252 25.5595 40.1184 25.5508Z" fill="#514D56"/>
<path d="M9.59151 25.1672C9.60027 25.3726 9.6886 25.5667 9.83803 25.7089C9.98746 25.8512 10.1865 25.9306 10.3934 25.9306C10.6004 25.9306 10.7994 25.8512 10.9489 25.7089C11.0983 25.5667 11.1866 25.3726 11.1954 25.1672C11.1853 24.6379 11.2815 24.1119 11.4785 23.62C11.6755 23.1281 11.9692 22.6801 12.3425 22.3023C12.7159 21.9244 13.1613 21.6242 13.6528 21.4193C14.1443 21.2144 14.672 21.1089 15.2051 21.1089C15.7381 21.1089 16.2658 21.2144 16.7573 21.4193C17.2488 21.6242 17.6943 21.9244 18.0676 22.3023C18.4409 22.6801 18.7347 23.1281 18.9316 23.62C19.1286 24.1119 19.2249 24.6379 19.2148 25.1672C19.2235 25.3726 19.3118 25.5667 19.4613 25.7089C19.6107 25.8512 19.8097 25.9306 20.0167 25.9306C20.2237 25.9306 20.4227 25.8512 20.5721 25.7089C20.7215 25.5667 20.8099 25.3726 20.8186 25.1672C20.8177 24.205 20.5663 23.2594 20.0888 22.4221C19.6114 21.5848 18.9241 20.8843 18.0936 20.3887C19.1482 19.7612 19.9665 18.8076 20.4231 17.674C20.8797 16.5404 20.9494 15.2894 20.6216 14.1127C20.2938 12.936 19.5866 11.8985 18.6082 11.1592C17.6299 10.4199 16.4344 10.0195 15.2051 10.0195C13.9757 10.0195 12.7802 10.4199 11.8019 11.1592C10.8236 11.8985 10.1163 12.936 9.78849 14.1127C9.46069 15.2894 9.53044 16.5404 9.98705 17.674C10.4437 18.8076 11.262 19.7612 12.3165 20.3887C11.4861 20.8843 10.7988 21.5848 10.3213 22.4221C9.84383 23.2594 9.59244 24.205 9.59151 25.1672ZM11.1954 15.6087C11.1954 14.8212 11.4304 14.0514 11.8709 13.3966C12.3113 12.7417 12.9373 12.2312 13.6697 11.9296C14.4022 11.628 15.2083 11.5488 15.9861 11.702C16.7638 11.8552 17.4784 12.234 18.0395 12.7904C18.6006 13.3469 18.983 14.056 19.1384 14.8282C19.2938 15.6004 19.2152 16.4011 18.9126 17.1289C18.6099 17.8568 18.0968 18.4792 17.438 18.9175C16.7793 19.3559 16.0045 19.5904 15.2116 19.5915C14.6844 19.5921 14.1623 19.4895 13.6751 19.2897C13.1878 19.0898 12.745 18.7966 12.372 18.4267C11.9989 18.0568 11.7028 17.6176 11.5007 17.1341C11.2985 16.6506 11.1943 16.1322 11.1939 15.6087H11.1954Z" fill="#514D56"/>
<path d="M24.5062 6.3711H5.90101C5.79567 6.37091 5.69133 6.39135 5.59395 6.43125C5.49658 6.47116 5.40808 6.52974 5.33353 6.60365C5.25898 6.67755 5.19983 6.76534 5.15948 6.86197C5.11912 6.9586 5.09835 7.06219 5.09835 7.1668V28.1929C5.09835 28.4043 5.18292 28.6071 5.33344 28.7566C5.48397 28.9061 5.68813 28.9901 5.90101 28.9901H24.5062C24.7191 28.9901 24.9233 28.9061 25.0738 28.7566C25.2243 28.6071 25.3089 28.4043 25.3089 28.1929V7.1668C25.3085 6.95564 25.2238 6.75325 25.0733 6.60407C24.9228 6.45488 24.7189 6.37109 24.5062 6.3711ZM23.705 27.3972H6.70943V7.96394H23.7137L23.705 27.3972Z" fill="#514D56"/>
<path d="M54.3228 8.67692L52.8961 7.38175L46.5138 1.59284L44.8306 0.0644003C44.8029 0.0408849 44.7735 0.0193638 44.7427 0H5.16752C3.93022 0.00113614 2.7439 0.489676 1.86886 1.35843C0.993817 2.22718 0.501526 3.40519 0.5 4.63399V31.3646C0.501526 32.5934 0.993817 33.7714 1.86886 34.6401C2.7439 35.5089 3.93022 35.9974 5.16752 35.9986H49.8397C51.077 35.9974 52.2633 35.5089 53.1383 34.6401C54.0134 33.7714 54.5057 32.5934 54.5072 31.3646V8.91306C54.4617 8.82323 54.399 8.74304 54.3228 8.67692ZM52.8961 31.3646C52.895 32.171 52.5718 32.9441 51.9975 33.5142C51.4231 34.0844 50.6445 34.405 49.8325 34.4057H5.16752C4.35448 34.4065 3.57441 34.0865 2.99882 33.5163C2.42324 32.946 2.09926 32.172 2.09811 31.3646V4.63399C2.09926 3.82653 2.42324 3.05258 2.99882 2.4823C3.57441 1.91202 4.35448 1.59208 5.16752 1.59284H44.1361L52.8961 9.53846V31.3646Z" fill="#514D56"/>
</g>
<defs>
<clipPath id="clip0_4281_5858">
<rect width="54" height="36" fill="white" transform="translate(0.5)"/>
</clipPath>
</defs>
</svg>
