<svg width="57" height="48" viewBox="0 0 57 48" fill="none" xmlns="http://www.w3.org/2000/svg">
<g clip-path="url(#clip0_4281_5847)">
<path d="M51.9562 20.9355H32.4015C32.1945 20.9355 31.996 21.0173 31.8496 21.1629C31.7033 21.3085 31.621 21.5059 31.621 21.7118C31.621 21.9176 31.7033 22.1151 31.8496 22.2606C31.996 22.4062 32.1945 22.488 32.4015 22.488H51.9562C52.1631 22.488 52.3616 22.4062 52.508 22.2606C52.6543 22.1151 52.7366 21.9176 52.7366 21.7118C52.7366 21.5059 52.6543 21.3085 52.508 21.1629C52.3616 21.0173 52.1631 20.9355 51.9562 20.9355Z" fill="#514D56"/>
<path d="M51.9562 26.5625H47.5871C47.3801 26.5625 47.1816 26.6443 47.0352 26.7898C46.8889 26.9354 46.8066 27.1329 46.8066 27.3387C46.8066 27.5446 46.8889 27.742 47.0352 27.8876C47.1816 28.0332 47.3801 28.1149 47.5871 28.1149H51.9562C52.1631 28.1149 52.3616 28.0332 52.508 27.8876C52.6543 27.742 52.7366 27.5446 52.7366 27.3387C52.7366 27.1329 52.6543 26.9354 52.508 26.7898C52.3616 26.6443 52.1631 26.5625 51.9562 26.5625Z" fill="#514D56"/>
<path d="M32.4015 28.1149H44.4666C44.6736 28.1149 44.8721 28.0332 45.0184 27.8876C45.1648 27.742 45.247 27.5446 45.247 27.3387C45.247 27.1329 45.1648 26.9354 45.0184 26.7898C44.8721 26.6443 44.6736 26.5625 44.4666 26.5625H32.4015C32.1945 26.5625 31.996 26.6443 31.8496 26.7898C31.7033 26.9354 31.621 27.1329 31.621 27.3387C31.621 27.5446 31.7033 27.742 31.8496 27.8876C31.996 28.0332 32.1945 28.1149 32.4015 28.1149Z" fill="#514D56"/>
<path d="M51.9562 32.1934H32.4015C32.1945 32.1934 31.996 32.2751 31.8496 32.4207C31.7033 32.5663 31.621 32.7637 31.621 32.9696C31.621 33.1754 31.7033 33.3729 31.8496 33.5184C31.996 33.664 32.1945 33.7458 32.4015 33.7458H51.9562C52.1631 33.7458 52.3616 33.664 52.508 33.5184C52.6543 33.3729 52.7366 33.1754 52.7366 32.9696C52.7366 32.7637 52.6543 32.5663 52.508 32.4207C52.3616 32.2751 52.1631 32.1934 51.9562 32.1934Z" fill="#514D56"/>
<path d="M43.0102 37.8203H32.4015C32.1945 37.8203 31.996 37.9021 31.8496 38.0477C31.7033 38.1932 31.621 38.3907 31.621 38.5965C31.621 38.8024 31.7033 38.9998 31.8496 39.1454C31.996 39.291 32.1945 39.3727 32.4015 39.3727H43.0102C43.2172 39.3727 43.4157 39.291 43.5621 39.1454C43.7084 38.9998 43.7907 38.8024 43.7907 38.5965C43.7907 38.3907 43.7084 38.1932 43.5621 38.0477C43.4157 37.9021 43.2172 37.8203 43.0102 37.8203Z" fill="#514D56"/>
<path d="M13.3138 36.4985C13.3138 36.7043 13.396 36.9018 13.5424 37.0473C13.6887 37.1929 13.8872 37.2747 14.0942 37.2747C14.3012 37.2747 14.4997 37.1929 14.6461 37.0473C14.7924 36.9018 14.8746 36.7043 14.8746 36.4985C14.8746 35.4691 15.2857 34.482 16.0175 33.7541C16.7493 33.0263 17.7418 32.6174 18.7767 32.6174C19.8116 32.6174 20.8041 33.0263 21.5359 33.7541C22.2676 34.482 22.6787 35.4691 22.6787 36.4985C22.6787 36.7043 22.761 36.9018 22.9073 37.0473C23.0537 37.1929 23.2522 37.2747 23.4592 37.2747C23.6661 37.2747 23.8646 37.1929 24.011 37.0473C24.1573 36.9018 24.2396 36.7043 24.2396 36.4985C24.2394 35.5605 23.995 34.6385 23.5302 33.8224C23.0654 33.0062 22.3961 32.3237 21.5874 31.8412C22.6118 31.2301 23.4066 30.3019 23.85 29.1986C24.2934 28.0954 24.3609 26.8779 24.0422 25.7329C23.7234 24.5878 23.0361 23.5783 22.0854 22.8589C21.1347 22.1395 19.973 21.75 18.7785 21.75C17.5839 21.75 16.4223 22.1395 15.4716 22.8589C14.5209 23.5783 13.8335 24.5878 13.5148 25.7329C13.1961 26.8779 13.2636 28.0954 13.707 29.1986C14.1503 30.3019 14.9451 31.2301 15.9696 31.8412C15.1601 32.323 14.4899 33.0054 14.0244 33.8216C13.559 34.6378 13.3142 35.5601 13.3138 36.4985ZM14.8746 27.1839C14.8746 26.4164 15.1034 25.6663 15.5321 25.0282C15.9608 24.3901 16.5701 23.8928 17.283 23.5992C17.9958 23.3056 18.7802 23.2288 19.5369 23.3786C20.2937 23.5284 20.9887 23.8981 21.5342 24.4408C22.0797 24.9835 22.4512 25.675 22.6015 26.4277C22.7519 27.1804 22.6745 27.9605 22.3791 28.6695C22.0836 29.3784 21.5835 29.9843 20.9418 30.4105C20.3002 30.8366 19.5459 31.064 18.7743 31.0638C17.7408 31.0625 16.7501 30.6538 16.0191 29.9272C15.2881 29.2006 14.8765 28.2153 14.8746 27.1875V27.1839Z" fill="#514D56"/>
<path d="M52.4604 12.9276H15.1123C14.8386 12.9562 14.6837 13.0768 14.512 13.3276C14.4097 13.4998 14.3465 13.6922 14.327 13.8913C14.3075 14.0904 14.3321 14.2914 14.3992 14.48V14.4907C14.8794 15.8425 17.5364 16.817 20.9642 17.9395C21.1335 17.9992 21.3136 18.0589 21.4733 18.1091C21.8269 18.2236 22.1716 18.3637 22.5046 18.5283C23.207 18.8781 23.6536 19.2734 23.7521 19.6484C23.784 19.7919 23.774 19.9415 23.7233 20.0795C23.6239 20.3371 23.4741 20.5725 23.2826 20.7721C22.1324 22.0344 18.8403 21.448 17.5664 20.384C17.4344 20.2753 17.3095 20.1738 17.187 20.0795C15.7295 18.9474 14.853 18.8459 11.5513 18.625C11.3487 18.6102 11.1478 18.5779 10.9509 18.5283C9.5486 18.1819 7.89173 17.0296 6.48579 15.8497C6.06797 15.4986 5.67177 15.1451 5.31158 14.8096C5.15789 14.6663 5.01022 14.5266 4.87094 14.3916C4.83909 14.3504 4.80196 14.3134 4.76049 14.2818C4.38109 13.8948 4.06172 13.5569 3.8312 13.2978C3.75573 13.2136 3.66324 13.1463 3.55978 13.1002C3.45633 13.0541 3.34424 13.0303 3.23088 13.0303H1.58842V2.13696C1.58608 2.10207 1.59348 2.06722 1.60979 2.03624C1.6261 2.00527 1.6507 1.97937 1.68086 1.96142C1.91139 1.77154 2.79985 1.38463 6.09799 1.78229C8.4044 2.0677 11.1659 2.63493 13.6091 3.14126C15.158 3.45892 16.6275 3.75746 17.8114 3.95569C20.2546 4.36291 24.2431 6.26643 29.7156 12.8893H31.7843C26.7909 6.59363 22.1793 3.04812 18.0707 2.37221C16.9217 2.18353 15.4725 1.88499 13.9441 1.56734C7.2638 0.179702 2.40124 -0.684883 0.679538 0.706335C0.463585 0.872734 0.289691 1.087 0.171711 1.33206C0.0537305 1.57712 -0.00507501 1.84619 -2.00435e-05 2.11785V13.8148C0.000613377 14.0256 0.0850623 14.2275 0.234883 14.3765C0.384704 14.5255 0.587723 14.6095 0.799601 14.6102H2.91752C3.03758 14.7296 3.19726 14.898 3.38696 15.0974C3.78557 15.5022 4.34026 16.0348 4.62001 16.3011C4.52184 16.6742 4.47221 17.0583 4.47233 17.4439V43.4842C4.47361 44.6813 4.95229 45.829 5.80335 46.6755C6.65442 47.522 7.80834 47.9981 9.01192 47.9994H52.4604C53.664 47.9981 54.8179 47.522 55.669 46.6755C56.52 45.829 56.9987 44.6813 57 43.4842V17.4439C56.9987 16.2467 56.5201 15.0989 55.669 14.2522C54.818 13.4055 53.6641 12.9291 52.4604 12.9276ZM11.4516 20.2061C11.861 20.2359 12.22 20.2646 12.5406 20.2849C13.9045 20.3912 14.1494 20.4437 14.1494 20.4437C15.2576 20.6133 15.7102 20.8915 16.5567 21.5973C17.6721 22.5299 19.6987 23.1593 21.5237 23.053L21.7975 23.0315C22.86 22.9252 23.8385 22.5538 24.4905 21.8373C25.0812 21.1829 25.3189 20.5846 25.3777 20.0819H27.0442V39.012H10.5055V20.0795H10.6412C10.9074 20.1438 11.1784 20.1861 11.4516 20.2061ZM55.4404 43.4842C55.4391 44.2699 55.1247 45.0231 54.5661 45.5786C54.0076 46.1342 53.2503 46.4469 52.4604 46.4481H9.01192C8.22198 46.4469 7.46475 46.1342 6.90617 45.5786C6.34759 45.0231 6.03322 44.2699 6.03195 43.4842V17.5204C6.93372 18.2589 7.90982 18.9028 8.94469 19.4418V39.7882C8.94469 39.9941 9.02691 40.1915 9.17326 40.3371C9.31962 40.4827 9.51812 40.5644 9.7251 40.5644H27.8234C28.0304 40.5644 28.2289 40.4827 28.3753 40.3371C28.5216 40.1915 28.6038 39.9941 28.6038 39.7882V19.3033C28.6038 19.2014 28.5836 19.1005 28.5444 19.0064C28.5052 18.9123 28.4477 18.8268 28.3752 18.7548C28.3027 18.6828 28.2167 18.6258 28.122 18.5869C28.0273 18.548 27.9259 18.5281 27.8234 18.5283H24.9971C24.4849 17.7377 23.4867 17.0944 22.0028 16.5985C21.8323 16.5483 21.663 16.4886 21.4829 16.4289C20.3735 16.0706 18.9952 15.6145 17.8558 15.1272C17.413 14.9438 16.983 14.7312 16.5687 14.4907L16.5579 14.48H52.4568C53.2468 14.4809 54.0042 14.7935 54.5629 15.3492C55.1215 15.9048 55.4358 16.6581 55.4368 17.4439L55.4404 43.4842Z" fill="#514D56"/>
</g>
<defs>
<clipPath id="clip0_4281_5847">
<rect width="57" height="48" fill="white"/>
</clipPath>
</defs>
</svg>
