<svg width="32" height="32" viewBox="0 0 32 32" fill="none" xmlns="http://www.w3.org/2000/svg">
<rect width="32" height="32" rx="4" fill="#FFCB08" fill-opacity="0.1"/>
<path fill-rule="evenodd" clip-rule="evenodd" d="M16.4759 10.2939L18.0199 13.3999C18.0973 13.5566 18.2466 13.6659 18.4199 13.6912L21.8766 14.1906C22.0166 14.2092 22.1426 14.2826 22.2286 14.3946C22.3899 14.6046 22.3653 14.9019 22.1719 15.0826L19.6666 17.5052C19.5393 17.6252 19.4826 17.8012 19.5159 17.9726L20.1159 21.3912C20.1579 21.6746 19.9646 21.9399 19.6813 21.9859C19.5639 22.0039 19.4439 21.9852 19.3373 21.9326L16.2586 20.3186C16.1039 20.2346 15.9186 20.2346 15.7639 20.3186L12.6626 21.9412C12.4033 22.0732 12.0859 21.9752 11.9446 21.7212C11.8906 21.6186 11.8719 21.5019 11.8906 21.3879L12.4906 17.9692C12.5206 17.7986 12.4639 17.6232 12.3399 17.5026L9.82126 15.0806C9.61592 14.8766 9.61459 14.5446 9.81926 14.3392C9.81992 14.3386 9.82059 14.3372 9.82126 14.3366C9.90592 14.2599 10.0099 14.2086 10.1226 14.1886L13.5799 13.6892C13.7526 13.6619 13.9013 13.5539 13.9799 13.3972L15.5226 10.2939C15.5846 10.1679 15.6946 10.0712 15.8279 10.0272C15.9619 9.98255 16.1086 9.99322 16.2346 10.0566C16.3379 10.1079 16.4226 10.1912 16.4759 10.2939Z" stroke="#FFCB08" stroke-width="1.5" stroke-linecap="round" stroke-linejoin="round"/>
</svg>
