<svg width="300" height="301" viewBox="0 0 300 301" fill="none" xmlns="http://www.w3.org/2000/svg">
<path d="M90.7908 117.985C90.7908 140.87 72.4349 159.424 49.7938 159.424C27.1497 159.424 8.79688 140.87 8.79688 117.985C8.79688 95.0974 27.1497 76.5468 49.7938 76.5468C72.4349 76.5468 90.7908 95.0974 90.7908 117.985Z" fill="#FFCB08" fill-opacity="0.2"/>
<path d="M242.12 75.394C242.12 87.562 232.461 97.4307 220.548 97.4307C208.639 97.4307 198.98 87.562 198.98 75.394C198.98 63.2216 208.639 53.3529 220.548 53.3529C232.461 53.3529 242.12 63.2216 242.12 75.394Z" fill="#E5F1F7"/>
<path d="M299 152.291H255.86" stroke="#E5F1F7" stroke-width="2" stroke-miterlimit="10" stroke-linecap="round" stroke-linejoin="round"/>
<path d="M244.511 280.381H196.833" stroke="#E5F1F7" stroke-width="2" stroke-miterlimit="10" stroke-linecap="round" stroke-linejoin="round"/>
<path d="M28.2423 242.825H1" stroke="#E5F1F7" stroke-width="2" stroke-miterlimit="10" stroke-linecap="round" stroke-linejoin="round"/>
<path d="M203.644 40.0701H183.212" stroke="#E5F1F7" stroke-width="2" stroke-miterlimit="10" stroke-linecap="round" stroke-linejoin="round"/>
<path d="M95.8013 33.8672H54.9336" stroke="#03A9F4" stroke-width="2" stroke-miterlimit="10" stroke-linecap="round" stroke-linejoin="round"/>
<path d="M116.233 33.8672H109.423" stroke="#FFCB08" stroke-width="2" stroke-miterlimit="10" stroke-linecap="round" stroke-linejoin="round"/>
<path d="M86.7195 45.2048H23.1484" stroke="#03A9F4" stroke-width="2" stroke-miterlimit="10" stroke-linecap="round" stroke-linejoin="round"/>
<path d="M51.9251 93.173C51.9251 95.988 49.8612 98.2729 47.3141 98.2729C44.767 98.2729 42.7031 95.988 42.7031 93.173C42.7031 90.3532 44.767 88.0683 47.3141 88.0683C49.8612 88.0683 51.9251 90.3532 51.9251 93.173Z" stroke="#FFCB08" stroke-width="2" stroke-miterlimit="10" stroke-linecap="round" stroke-linejoin="round"/>
<path d="M158.736 29.8822L148.476 26.945C146.929 26.5014 145.514 28.013 145.929 29.665L148.679 40.6219C149.09 42.2738 151.023 42.8305 152.159 41.6221L159.669 33.5979C160.805 32.385 160.283 30.3212 158.736 29.8822" fill="#E5F1F7"/>
<path d="M158.736 28.8822L148.476 25.945C146.929 25.5014 145.514 27.013 145.929 28.665L148.679 39.6219C149.09 41.2738 151.023 41.8305 152.159 40.6221L159.669 32.5979C160.805 31.385 160.283 29.3212 158.736 28.8822V28.8822Z" stroke="#03A9F4" stroke-width="2" stroke-miterlimit="10" stroke-linecap="round" stroke-linejoin="round"/>
<path d="M34.498 146.619H45.8518" stroke="#03A9F4" stroke-width="2" stroke-miterlimit="10" stroke-linecap="round" stroke-linejoin="round"/>
<path d="M40.1768 152.291V139.953" stroke="#03A9F4" stroke-width="2" stroke-miterlimit="10" stroke-linecap="round" stroke-linejoin="round"/>
<path d="M227.482 299.27H77.6367" stroke="#03A9F4" stroke-width="2" stroke-miterlimit="10" stroke-linecap="round" stroke-linejoin="round"/>
<path d="M247.914 263.377H241.104" stroke="#FFCB08" stroke-width="2" stroke-miterlimit="10" stroke-linecap="round" stroke-linejoin="round"/>
<path d="M134.397 252.041H270.622" stroke="#03A9F4" stroke-width="2" stroke-miterlimit="10" stroke-linecap="round" stroke-linejoin="round"/>
<path d="M116.233 252.041H120.772" stroke="#FFCB08" stroke-width="2" stroke-miterlimit="10" stroke-linecap="round" stroke-linejoin="round"/>
<path d="M288.782 123.949H245.646" stroke="#03A9F4" stroke-width="2" stroke-miterlimit="10" stroke-linecap="round" stroke-linejoin="round"/>
<path d="M277.433 135.287H261.54" stroke="#FFCB08" stroke-width="2" stroke-miterlimit="10" stroke-linecap="round" stroke-linejoin="round"/>
<path d="M113.097 53.8975H121.429" stroke="#03A9F4" stroke-width="2" stroke-miterlimit="10" stroke-linecap="round" stroke-linejoin="round"/>
<path d="M117.263 58.0537V48.7378" stroke="#03A9F4" stroke-width="2" stroke-miterlimit="10" stroke-linecap="round" stroke-linejoin="round"/>
<path d="M63.8128 274.115C63.8128 277.521 61.2699 280.283 58.138 280.283C55.0018 280.283 52.459 277.521 52.459 274.115C52.459 270.709 55.0018 267.947 58.138 267.947C61.2699 267.947 63.8128 270.709 63.8128 274.115Z" fill="#E5F1F7"/>
<path d="M169.586 280.381H160.504" stroke="#E5F1F7" stroke-width="2" stroke-miterlimit="10" stroke-linecap="round" stroke-linejoin="round"/>
<path d="M247.715 187.955H259.064" stroke="#03A9F4" stroke-width="2" stroke-miterlimit="10" stroke-linecap="round" stroke-linejoin="round"/>
<path d="M253.39 193.622V181.288" stroke="#03A9F4" stroke-width="2" stroke-miterlimit="10" stroke-linecap="round" stroke-linejoin="round"/>
<path d="M277.432 213.255C277.432 217.916 273.872 221.69 269.486 221.69C265.095 221.69 261.535 217.916 261.535 213.255C261.535 208.594 265.095 204.816 269.486 204.816C273.872 204.816 277.432 208.594 277.432 213.255Z" fill="#E5F1F7"/>
<path d="M22.9396 196.925H13.8574" stroke="#E5F1F7" stroke-width="2" stroke-miterlimit="10" stroke-linecap="round" stroke-linejoin="round"/>
<path d="M247.294 64.51C247.294 69.6572 243.34 73.8296 238.462 73.8296C233.584 73.8296 229.63 69.6572 229.63 64.51C229.63 59.3628 233.584 55.1905 238.462 55.1905C243.34 55.1905 247.294 59.3628 247.294 64.51Z" stroke="#03A9F4" stroke-width="2" stroke-miterlimit="10" stroke-linecap="round" stroke-linejoin="round"/>
<path d="M92.5931 6.94072C92.5931 10.0682 90.0502 12.6074 86.9141 12.6074C83.7821 12.6074 81.2393 10.0682 81.2393 6.94072C81.2393 3.80902 83.7821 1.26981 86.9141 1.26981C90.0502 1.26981 92.5931 3.80902 92.5931 6.94072Z" fill="#E5F1F7"/>
<path d="M101.163 97.6077L107.249 90.5305" stroke="#03A9F4" stroke-width="2" stroke-miterlimit="10" stroke-linecap="round" stroke-linejoin="round"/>
<path d="M215.424 144.997H230.185" stroke="#03A9F4" stroke-width="2" stroke-miterlimit="10" stroke-linecap="round" stroke-linejoin="round"/>
<path d="M233.773 158.091H207.369" stroke="#FFCB08" stroke-opacity="0.2" stroke-width="2" stroke-miterlimit="10" stroke-linecap="round" stroke-linejoin="round"/>
<path d="M64.8848 140.839H83.2822" stroke="#03A9F4" stroke-width="2" stroke-miterlimit="10" stroke-linecap="round" stroke-linejoin="round" stroke-dasharray="2.97 35.66"/>
<path d="M84.2993 168.314H68.9277" stroke="#03A9F4" stroke-width="2" stroke-miterlimit="10" stroke-linecap="round" stroke-linejoin="round" stroke-dasharray="2.97 35.66"/>
<path d="M70.2212 215.771C69.3566 215.771 68.5344 215.918 67.7335 216.135C67.7377 216.009 67.7504 215.892 67.7504 215.771C67.7504 204.593 58.9013 195.532 47.9883 195.532C38.4992 195.532 30.5826 202.38 28.6712 211.505C27.1412 210.82 25.4544 210.438 23.6829 210.438C16.7833 210.438 11.1934 216.161 11.1934 223.221C11.1934 230.281 16.7833 236.007 23.6829 236.007C28.0609 236.007 66.4069 236.007 70.2212 236.007C75.6798 236.007 80.1044 231.477 80.1044 225.89C80.1044 220.301 75.6798 215.771 70.2212 215.771Z" stroke="#03A9F4" stroke-width="2" stroke-miterlimit="10" stroke-linecap="round" stroke-linejoin="round"/>
<path d="M242.099 196.882C242.099 205.711 235.155 212.868 226.592 212.868C218.027 212.868 211.086 205.711 211.086 196.882C211.086 188.055 218.027 180.898 226.592 180.898C235.155 180.898 242.099 188.055 242.099 196.882Z" fill="#E5F1F7"/>
<path d="M234.932 230.213C233.104 232.125 230.141 232.125 228.313 230.213L215.334 216.633L221.953 209.71L234.932 223.29C236.76 225.202 236.76 228.3 234.932 230.213Z" stroke="#03A9F4" stroke-width="2" stroke-miterlimit="10" stroke-linecap="round" stroke-linejoin="round"/>
<path d="M223.954 191.389C231.441 199.06 231.441 211.497 223.954 219.169C216.467 226.84 204.327 226.84 196.84 219.169C189.353 211.497 189.353 199.06 196.84 191.389C204.327 183.717 216.467 183.717 223.954 191.389Z" fill="#FFF5CE"/>
<path d="M218.317 197.391C218.317 200.298 216.182 202.652 213.55 202.652C210.918 202.652 208.785 200.298 208.785 197.391C208.785 194.489 210.918 192.133 213.55 192.133C216.182 192.133 218.317 194.489 218.317 197.391Z" fill="white"/>
<path d="M282.94 0.999931H252.135C247.442 0.999931 243.635 4.6099 243.635 9.0646V25.7601C243.635 30.213 247.442 33.823 252.135 33.823H256.755V42.8347C256.755 43.8522 258.027 44.3866 258.821 43.7023L270.277 33.823H282.94C287.635 33.823 291.441 30.213 291.441 25.7601V9.0646C291.441 4.6099 287.635 0.999931 282.94 0.999931Z" stroke="#03A9F4" stroke-width="2" stroke-miterlimit="10" stroke-linecap="round" stroke-linejoin="round"/>
<path d="M257.021 16.365H262.758" stroke="#03A9F4" stroke-width="2" stroke-miterlimit="10" stroke-linecap="round" stroke-linejoin="round"/>
<path d="M257.021 21.1394H266.583" stroke="#FFCB08" stroke-width="2" stroke-miterlimit="10" stroke-linecap="round" stroke-linejoin="round"/>
<path d="M273.275 21.1394H276.143" stroke="#FFCB08" stroke-width="2" stroke-miterlimit="10" stroke-linecap="round" stroke-linejoin="round"/>
<path d="M271.363 16.365H281.881" stroke="#03A9F4" stroke-width="2" stroke-miterlimit="10" stroke-linecap="round" stroke-linejoin="round"/>
<path d="M149.325 218.865H126.402" stroke="#FFCB08" stroke-opacity="0.2" stroke-width="2" stroke-miterlimit="10" stroke-linecap="round" stroke-linejoin="round"/>
<path d="M108.754 205.533C108.754 209.676 105.678 213.034 101.877 213.034C98.0786 213.034 95 209.676 95 205.533C95 201.391 98.0786 198.033 101.877 198.033C105.678 198.033 108.754 201.391 108.754 205.533Z" stroke="#03A9F4" stroke-width="2" stroke-miterlimit="10" stroke-linecap="round" stroke-linejoin="round"/>
<path d="M82 118.725H109.268C116.631 101.294 133.769 89.0772 153.73 89.0772C180.414 89.0772 202.046 110.906 202.046 137.834C202.046 164.758 180.414 186.588 153.73 186.588C133.718 186.588 116.547 174.311 109.212 156.812H99.9325" stroke="#03A9F4" stroke-width="3" stroke-miterlimit="10" stroke-linecap="round" stroke-linejoin="round"/>
<path d="M93.6729 130.809H107.497" stroke="#03A9F4" stroke-width="3" stroke-miterlimit="10" stroke-linecap="round" stroke-linejoin="round"/>
<path d="M88.8271 143.307H107.498" stroke="#03A9F4" stroke-width="3" stroke-miterlimit="10" stroke-linecap="round" stroke-linejoin="round"/>
<path d="M124.009 129.893C120.858 141.917 125.101 155.187 135.666 162.933C149.404 172.999 168.626 169.923 178.601 156.064C188.579 142.202 185.531 122.804 171.797 112.738C158.06 102.669 138.838 105.745 128.859 119.603C128.744 119.768 128.629 119.928 128.518 120.092" stroke="#FFCB08" stroke-width="3" stroke-miterlimit="10" stroke-linecap="round" stroke-linejoin="round"/>
<path d="M139.005 119.422L128.427 120.228L127.8 109.541" stroke="#FFCB08" stroke-width="3" stroke-miterlimit="10" stroke-linecap="round" stroke-linejoin="round"/>
</svg>
