<svg width="306" height="254" viewBox="0 0 306 254" fill="none" xmlns="http://www.w3.org/2000/svg">
<path d="M292 182.979C292 208.033 272.078 228.343 247.5 228.343C222.924 228.343 203 208.033 203 182.979C203 157.927 222.924 137.617 247.5 137.617C272.078 137.617 292 157.927 292 182.979Z" fill="#FFCB08" fill-opacity="0.2"/>
<path d="M273.843 52.0804C273.843 61.2124 266.581 68.6152 257.625 68.6152C248.667 68.6152 241.407 61.2124 241.407 52.0804C241.407 42.9508 248.667 35.5479 257.625 35.5479C266.581 35.5479 273.843 42.9508 273.843 52.0804Z" fill="#E5F1F7"/>
<path d="M302 130.826H265.323" stroke="#FFCB08" stroke-opacity="0.2" stroke-width="8" stroke-miterlimit="10" stroke-linecap="round" stroke-linejoin="round"/>
<path d="M246.984 250H171.338" stroke="#FFCB08" stroke-opacity="0.2" stroke-width="8" stroke-miterlimit="10" stroke-linecap="round" stroke-linejoin="round"/>
<path d="M31.5077 93.4385H4" stroke="#FFCB08" stroke-opacity="0.2" stroke-width="8" stroke-miterlimit="10" stroke-linecap="round" stroke-linejoin="round"/>
<path d="M208.015 37.3545H185.092" stroke="#FFCB08" stroke-opacity="0.2" stroke-width="8" stroke-miterlimit="10" stroke-linecap="round" stroke-linejoin="round"/>
<path d="M96.8387 26.8408H55.5771" stroke="#03A9F4" stroke-width="2" stroke-miterlimit="10" stroke-linecap="round" stroke-linejoin="round"/>
<path d="M117.469 26.8408H110.592" stroke="#FFCB08" stroke-width="2" stroke-miterlimit="10" stroke-linecap="round" stroke-linejoin="round"/>
<path d="M87.669 38.5244H23.4844" stroke="#03A9F4" stroke-width="2" stroke-miterlimit="10" stroke-linecap="round" stroke-linejoin="round"/>
<path d="M167.444 24.5044C167.444 28.3764 164.368 31.5146 160.567 31.5146C156.769 31.5146 153.69 28.3764 153.69 24.5044C153.69 20.6324 156.769 17.4942 160.567 17.4942C164.368 17.4942 167.444 20.6324 167.444 24.5044Z" stroke="#03A9F4" stroke-width="2" stroke-miterlimit="10" stroke-linecap="round" stroke-linejoin="round"/>
<path d="M234.754 198.655C234.754 202.527 231.678 205.665 227.877 205.665C224.079 205.665 221 202.527 221 198.655C221 194.783 224.079 191.645 227.877 191.645C231.678 191.645 234.754 194.783 234.754 198.655Z" stroke="#03A9F4" stroke-width="2" stroke-miterlimit="10" stroke-linecap="round" stroke-linejoin="round"/>
<path d="M267.652 174.575L264.009 160.718C263.462 158.629 260.901 157.93 259.402 159.458L249.451 169.602C247.95 171.131 248.637 173.741 250.687 174.299L264.28 178.012C266.327 178.573 268.2 176.662 267.652 174.575Z" fill="#E5F1F7"/>
<path d="M267.652 174.575L264.009 160.718C263.462 158.629 260.901 157.93 259.402 159.458L249.451 169.602C247.95 171.131 248.637 173.741 250.687 174.299L264.28 178.012C266.327 178.573 268.2 176.662 267.652 174.575V174.575Z" stroke="#03A9F4" stroke-width="2" stroke-miterlimit="10" stroke-linecap="round" stroke-linejoin="round"/>
<path d="M31.3506 132.027H42.8121" stroke="#03A9F4" stroke-width="2" stroke-miterlimit="10" stroke-linecap="round" stroke-linejoin="round"/>
<path d="M37.0815 137.871V126.187" stroke="#03A9F4" stroke-width="2" stroke-miterlimit="10" stroke-linecap="round" stroke-linejoin="round"/>
<path d="M229.792 232.475H78.5" stroke="#03A9F4" stroke-width="2" stroke-miterlimit="10" stroke-linecap="round" stroke-linejoin="round"/>
<path d="M250.423 232.475H243.546" stroke="#FFCB08" stroke-width="2" stroke-miterlimit="10" stroke-linecap="round" stroke-linejoin="round"/>
<path d="M135.807 220.791H273.346" stroke="#03A9F4" stroke-width="2" stroke-miterlimit="10" stroke-linecap="round" stroke-linejoin="round"/>
<path d="M117.469 220.791H122.053" stroke="#FFCB08" stroke-width="2" stroke-miterlimit="10" stroke-linecap="round" stroke-linejoin="round"/>
<path d="M288.089 101.651H244.535" stroke="#03A9F4" stroke-width="2" stroke-miterlimit="10" stroke-linecap="round" stroke-linejoin="round"/>
<path d="M280.223 113.299H264.177" stroke="#FFCB08" stroke-width="2" stroke-miterlimit="10" stroke-linecap="round" stroke-linejoin="round"/>
<path d="M115.295 45.1816H123.703" stroke="#03A9F4" stroke-width="2" stroke-miterlimit="10" stroke-linecap="round" stroke-linejoin="round"/>
<path d="M119.499 49.4668V40.8933" stroke="#03A9F4" stroke-width="2" stroke-miterlimit="10" stroke-linecap="round" stroke-linejoin="round"/>
<path d="M83.8067 0.0622482L75.2725 2.39198C73.9888 2.74483 73.5579 4.38058 74.4977 5.34098L80.7466 11.7086C81.6864 12.669 83.2933 12.2297 83.6394 10.9188L85.9249 2.21906C86.2687 0.908146 85.095 -0.290601 83.8067 0.0622482Z" fill="#FFCB08" fill-opacity="0.2"/>
<path d="M64.5421 233.751C64.5421 236.978 61.977 239.593 58.8113 239.593C55.6457 239.593 53.0806 236.978 53.0806 233.751C53.0806 230.526 55.6457 227.909 58.8113 227.909C61.977 227.909 64.5421 230.526 64.5421 233.751Z" fill="#E5F1F7"/>
<path d="M155.989 105.596L128.985 57.9197L103.199 73.0968L123.449 108.847" stroke="#03A9F4" stroke-width="2" stroke-miterlimit="10" stroke-linecap="round" stroke-linejoin="round"/>
<path d="M146.292 88.4777L163.599 57.9201L174.834 64.5331L189.385 73.0972L169.344 108.476" stroke="#03A9F4" stroke-width="2" stroke-miterlimit="10" stroke-linecap="round" stroke-linejoin="round"/>
<path d="M116.021 73.1311L127.992 94.2646" stroke="#03A9F4" stroke-width="2" stroke-miterlimit="10" stroke-linecap="round" stroke-linejoin="round"/>
<path d="M171.328 73.096L160.345 92.4863" stroke="#03A9F4" stroke-width="2" stroke-miterlimit="10" stroke-linecap="round" stroke-linejoin="round"/>
<path d="M195.09 120.678L201.685 121.884" stroke="#03A9F4" stroke-width="2" stroke-miterlimit="10" stroke-linecap="round" stroke-linejoin="round"/>
<path d="M184.149 102.047L187.363 95.6956" stroke="#03A9F4" stroke-width="2" stroke-miterlimit="10" stroke-linecap="round" stroke-linejoin="round"/>
<path d="M193.724 109.357L202.614 103.051" stroke="#03A9F4" stroke-width="2" stroke-miterlimit="10" stroke-linecap="round" stroke-linejoin="round"/>
<path d="M89.887 120.678L83.292 121.884" stroke="#03A9F4" stroke-width="2" stroke-miterlimit="10" stroke-linecap="round" stroke-linejoin="round"/>
<path d="M100.828 102.047L97.6143 95.6956" stroke="#03A9F4" stroke-width="2" stroke-miterlimit="10" stroke-linecap="round" stroke-linejoin="round"/>
<path d="M91.2529 109.357L82.3633 103.051" stroke="#03A9F4" stroke-width="2" stroke-miterlimit="10" stroke-linecap="round" stroke-linejoin="round"/>
<path fill-rule="evenodd" clip-rule="evenodd" d="M130.629 173.614C131.255 174.868 132.476 175.652 133.803 175.649C134.362 175.652 134.917 175.512 135.415 175.242L146.205 169.189C146.234 169.171 146.267 169.161 146.3 169.163L157.017 175.166C157.536 175.466 158.117 175.621 158.705 175.619C158.892 175.619 159.082 175.601 159.267 175.573C161.196 175.234 162.514 173.296 162.23 171.223L160.144 158.48C160.132 158.462 160.128 158.461 160.127 158.459C160.127 158.458 160.127 158.457 160.127 158.455C160.127 158.447 160.144 158.429 160.144 158.429L168.843 149.4C170.128 148.07 170.292 145.926 169.223 144.389C168.642 143.586 167.791 143.056 166.852 142.914L154.853 141.057C154.831 141.057 154.808 141.032 154.784 141.006L149.424 129.459C148.82 128.154 147.583 127.33 146.224 127.322C145.831 127.322 145.437 127.388 145.063 127.526C144.164 127.854 143.422 128.546 143 129.459L137.648 140.973C137.648 141.027 137.598 141.05 137.551 141.05L125.58 142.906C124.847 143.039 124.165 143.39 123.612 143.924C122.913 144.659 122.52 145.669 122.52 146.722C122.522 147.721 122.896 148.678 123.563 149.375L132.333 158.429C132.352 158.45 132.359 158.478 132.359 158.506L130.247 171.198C130.122 172.027 130.257 172.877 130.629 173.614ZM146.156 131.052L146.18 131.034H146.225L146.246 131.057C146.268 131.057 146.287 131.062 146.303 131.078C146.317 131.093 146.324 131.113 146.322 131.136L151.679 142.63C152.194 143.762 153.194 144.551 154.356 144.741L166.355 146.613C166.376 146.613 166.398 146.619 166.417 146.629C166.428 146.631 166.438 146.631 166.45 146.629L166.473 146.652L166.45 146.708L157.75 155.76C156.885 156.63 156.499 157.917 156.728 159.166L158.817 171.835L158.769 171.883H158.72C158.71 171.888 158.701 171.888 158.691 171.883C158.668 171.881 158.644 171.871 158.622 171.858H158.601L147.934 165.881C147.422 165.596 146.853 165.443 146.275 165.446C145.68 165.446 145.092 165.606 144.566 165.906L133.83 171.947C133.818 171.949 133.804 171.949 133.792 171.947C133.742 171.947 133.699 171.911 133.688 171.86V171.81L135.774 159.143C135.968 157.904 135.589 156.64 134.754 155.76L125.983 146.73C125.981 146.692 125.986 146.659 126.005 146.626L126.149 146.575L138.073 144.741C139.234 144.548 140.232 143.762 140.749 142.63L146.109 131.108C146.121 131.085 146.135 131.065 146.156 131.052Z" fill="#FFCB08"/>
<path d="M191.995 142.715L193.448 132.338L184.792 125.786L182.3 115.193L172.272 112.447L166.098 104.063L155.432 105.671L146.323 99.9739L137.33 105.264L127.148 103.785L120.722 112.609L110.327 115.149L107.638 125.372L99.4129 131.663L100.988 142.535L95.4014 151.822L100.589 160.991L99.1401 171.368L107.794 177.921L110.285 188.516L120.314 191.259L126.487 199.643L137.153 198.035L146.261 203.732L155.258 198.442L165.436 199.921L171.864 191.098L182.257 188.56L184.948 178.334L193.173 172.044L191.596 161.171L197.184 151.885L191.995 142.715Z" stroke="#FFCB08" stroke-width="3" stroke-miterlimit="10" stroke-linecap="round" stroke-linejoin="round"/>
<path d="M158.79 184.251C141.284 191.404 121.403 182.737 114.386 164.892C107.367 147.046 115.871 126.782 133.378 119.626C150.884 112.471 170.765 121.138 177.782 138.986C184.801 156.832 176.299 177.099 158.79 184.251Z" stroke="#FFCB08" stroke-width="3" stroke-miterlimit="10" stroke-linecap="round" stroke-linejoin="round"/>
<path d="M55.0817 163.602H17.1005C11.3147 163.602 6.62012 168.385 6.62012 174.288V196.41C6.62012 202.31 11.3147 207.094 17.1005 207.094H22.7969V219.034C22.7969 220.383 24.3648 221.091 25.3436 220.184L39.4688 207.094H55.0817C60.8698 207.094 65.5622 202.31 65.5622 196.41V174.288C65.5622 168.385 60.8698 163.602 55.0817 163.602Z" stroke="#03A9F4" stroke-width="2" stroke-miterlimit="10" stroke-linecap="round" stroke-linejoin="round"/>
<path d="M20.9746 180.19H28.044" stroke="#03A9F4" stroke-width="2" stroke-miterlimit="10" stroke-linecap="round" stroke-linejoin="round"/>
<path d="M20.9746 189.538H32.8693" stroke="#FFCB08" stroke-width="2" stroke-miterlimit="10" stroke-linecap="round" stroke-linejoin="round"/>
<path d="M41.6055 189.538H44.3309" stroke="#FFCB08" stroke-width="2" stroke-miterlimit="10" stroke-linecap="round" stroke-linejoin="round"/>
<path d="M266.348 87.2034C264.436 89.1523 261.337 89.1523 259.425 87.2034L245.85 73.3652L252.773 66.3105L266.348 80.1487C268.26 82.0976 268.26 85.2546 266.348 87.2034Z" stroke="#03A9F4" stroke-width="2" stroke-miterlimit="10" stroke-linecap="round" stroke-linejoin="round"/>
<path d="M254.865 46.594C262.696 54.5764 262.696 67.5173 254.865 75.4996C247.035 83.4819 234.338 83.4819 226.507 75.4996C218.677 67.5173 218.677 54.5764 226.507 46.594C234.338 38.6117 247.035 38.6117 254.865 46.594Z" fill="#FFF5CE"/>
<path d="M254.865 46.594C262.696 54.5764 262.696 67.5173 254.865 75.4996C247.035 83.4819 234.338 83.4819 226.507 75.4996C218.677 67.5173 218.677 54.5764 226.507 46.594C234.338 38.6117 247.035 38.6117 254.865 46.594Z" stroke="#03A9F4" stroke-width="2" stroke-miterlimit="10" stroke-linecap="round" stroke-linejoin="round"/>
<path d="M248.97 52.6256C248.97 55.4344 246.737 57.708 243.984 57.708C241.231 57.708 239 55.4344 239 52.6256C239 49.8215 241.231 47.5455 243.984 47.5455C246.737 47.5455 248.97 49.8215 248.97 52.6256Z" fill="white"/>
<path d="M37.2134 180.19H51.2079" stroke="#03A9F4" stroke-width="2" stroke-miterlimit="10" stroke-linecap="round" stroke-linejoin="round"/>
</svg>
