<svg width="40" height="40" viewBox="0 0 40 40" fill="none" xmlns="http://www.w3.org/2000/svg">
<rect width="40" height="40" rx="10" fill="#DADADA"/>
<path d="M22.4619 18.9147L22.4619 29.1676C22.4619 29.4903 22.3983 29.8099 22.2748 30.108C22.1513 30.4062 21.9703 30.6771 21.7421 30.9053C21.514 31.1334 21.2431 31.3144 20.9449 31.4379C20.6468 31.5614 20.3272 31.625 20.0045 31.625C19.6818 31.625 19.3623 31.5614 19.0641 31.4379C18.766 31.3144 18.4951 31.1334 18.2669 30.9053C18.0387 30.6771 17.8577 30.4062 17.7342 30.108C17.6107 29.8099 17.5472 29.4903 17.5472 29.1676L17.5472 18.9147C17.5472 18.8153 17.5867 18.7199 17.657 18.6496C17.7273 18.5793 17.8227 18.5397 17.9222 18.5397L22.0869 18.5397C22.1863 18.5397 22.2817 18.5793 22.3521 18.6496C22.4224 18.7199 22.4619 18.8153 22.4619 18.9147ZM18.2972 29.1676C18.2972 29.6204 18.477 30.0547 18.7972 30.3749C19.1174 30.6951 19.5517 30.875 20.0045 30.875C20.4573 30.875 20.8916 30.6951 21.2118 30.3749C21.532 30.0547 21.7119 29.6204 21.7119 29.1676L21.7119 19.2897L18.2972 19.2897L18.2972 29.1676Z" fill="#514D56"/>
<path d="M24.824 12.7014C24.824 12.735 24.8222 12.7685 24.8184 12.8019L24.8139 12.83L23.8963 17.7182C23.8434 18.1528 23.6328 18.553 23.3043 18.8426C22.9759 19.1322 22.5525 19.291 22.1147 19.289L17.8944 19.289C17.452 19.2894 17.0251 19.1264 16.6955 18.8314C16.3659 18.5364 16.1568 18.1301 16.1083 17.6904L15.1952 12.83C15.1763 12.6996 15.1857 12.5666 15.2228 12.4401C15.2598 12.3136 15.3237 12.1965 15.4101 12.0969C15.4964 11.9973 15.6032 11.9174 15.7232 11.8627C15.8431 11.8081 15.9734 11.7799 16.1053 11.78L23.9045 11.78C24.0254 11.78 24.1451 11.8038 24.2568 11.85C24.3684 11.8962 24.4699 11.964 24.5554 12.0495C24.6408 12.1349 24.7086 12.2364 24.7548 12.3481C24.8011 12.4597 24.8248 12.5794 24.8248 12.7003L24.824 12.7014ZM24.074 12.7097C24.0769 12.6873 24.0745 12.6646 24.067 12.6434C24.0595 12.6222 24.0472 12.603 24.0309 12.5874C24.0149 12.5696 23.9954 12.5554 23.9735 12.5457C23.9517 12.536 23.9281 12.5311 23.9042 12.5312L16.1045 12.5312C16.0806 12.5311 16.057 12.536 16.0351 12.5457C16.0133 12.5554 15.9937 12.5696 15.9778 12.5874C15.9616 12.6052 15.9495 12.6262 15.9422 12.649C15.9349 12.6718 15.9326 12.696 15.9354 12.7198L16.8489 17.5798C16.8727 17.8409 16.9928 18.0839 17.186 18.2612C17.3792 18.4386 17.6314 18.5376 17.8937 18.539L22.1147 18.539C22.3723 18.5393 22.621 18.4443 22.8129 18.2724C23.0049 18.1005 23.1265 17.8637 23.1545 17.6075L24.074 12.7097Z" fill="#514D56"/>
<path opacity="0.4" d="M21.0658 21.0446L21.0658 23.0872C21.0658 23.3686 20.954 23.6386 20.755 23.8376C20.5559 24.0366 20.286 24.1484 20.0045 24.1484C19.7231 24.1484 19.4531 24.0366 19.2541 23.8376C19.0551 23.6386 18.9433 23.3686 18.9433 23.0872L18.9433 21.0446C18.9433 20.7631 19.0551 20.4932 19.2541 20.2941C19.4531 20.0951 19.7231 19.9833 20.0045 19.9833C20.286 19.9833 20.5559 20.0951 20.755 20.2941C20.954 20.4932 21.0658 20.7631 21.0658 21.0446ZM19.6933 23.0872C19.6933 23.1697 19.7261 23.2489 19.7844 23.3073C19.8428 23.3656 19.922 23.3984 20.0045 23.3984C20.0871 23.3984 20.1663 23.3656 20.2246 23.3073C20.283 23.2489 20.3158 23.1697 20.3158 23.0872L20.3158 21.0446C20.3158 20.962 20.283 20.8828 20.2246 20.8245C20.1663 20.7661 20.0871 20.7333 20.0045 20.7333C19.922 20.7333 19.8428 20.7661 19.7844 20.8245C19.7261 20.8828 19.6933 20.962 19.6933 21.0446L19.6933 23.0872Z" fill="#514D56"/>
<path d="M24.0654 16.784C24.0653 16.8072 24.0632 16.8303 24.059 16.853L23.8963 17.7182C23.8434 18.1529 23.6328 18.553 23.3043 18.8426C22.9759 19.1322 22.5525 19.291 22.1147 19.289L17.8944 19.289C17.452 19.2894 17.0251 19.1264 16.6955 18.8314C16.3659 18.5364 16.1568 18.1301 16.1083 17.6904L15.95 16.853C15.9399 16.7989 15.9418 16.7432 15.9557 16.6898C15.9695 16.6365 15.9949 16.5869 16.0301 16.5445C16.0653 16.5021 16.1094 16.468 16.1593 16.4446C16.2091 16.4212 16.2636 16.409 16.3187 16.409L23.6904 16.409C23.7899 16.409 23.8852 16.4486 23.9556 16.5189C24.0259 16.5892 24.0654 16.6846 24.0654 16.784ZM16.7705 17.159L16.8497 17.5798C16.8734 17.8409 16.9936 18.0839 17.1868 18.2612C17.3799 18.4386 17.6322 18.5376 17.8944 18.539L22.1147 18.539C22.3723 18.5393 22.621 18.4443 22.8129 18.2724C23.0049 18.1005 23.1265 17.8637 23.1545 17.6075L23.2385 17.1575L16.7705 17.159Z" fill="#514D56"/>
<path d="M20.3795 8.75006L20.3795 10.9922C20.3795 11.0916 20.34 11.187 20.2697 11.2574C20.1994 11.3277 20.104 11.3672 20.0045 11.3672C19.9051 11.3672 19.8097 11.3277 19.7394 11.2574C19.669 11.187 19.6295 11.0916 19.6295 10.9922L19.6295 8.75006C19.6295 8.6506 19.669 8.55522 19.7394 8.48489C19.8097 8.41457 19.9051 8.37506 20.0045 8.37506C20.104 8.37506 20.1994 8.41457 20.2697 8.48489C20.34 8.55522 20.3795 8.6506 20.3795 8.75006Z" fill="#514D56"/>
<path d="M17.3795 10.9923C17.3795 11.0727 17.3536 11.151 17.3057 11.2156C17.2578 11.2802 17.1904 11.3276 17.1135 11.351C17.0365 11.3744 16.9541 11.3724 16.8784 11.3453C16.8027 11.3183 16.7376 11.2676 16.6929 11.2008L15.1929 8.95904C15.1645 8.91814 15.1445 8.872 15.1341 8.8233C15.1238 8.77459 15.1232 8.72431 15.1324 8.67539C15.1417 8.62646 15.1606 8.57987 15.1881 8.53833C15.2155 8.49679 15.251 8.46113 15.2924 8.43344C15.3337 8.40575 15.3802 8.38658 15.4291 8.37705C15.478 8.36752 15.5283 8.36781 15.577 8.37792C15.6258 8.38803 15.672 8.40775 15.7131 8.43593C15.7541 8.46411 15.7892 8.50018 15.8161 8.54204L17.3161 10.7842C17.3575 10.8457 17.3796 10.9182 17.3795 10.9923Z" fill="#514D56"/>
<path d="M24.8795 8.7493C24.8794 8.82341 24.8574 8.89584 24.8162 8.95743L23.3161 11.1992C23.2895 11.2417 23.2546 11.2784 23.2135 11.3072C23.1724 11.336 23.1259 11.3562 23.0769 11.3667C23.0278 11.3772 22.9772 11.3777 22.9279 11.3683C22.8786 11.3589 22.8317 11.3396 22.79 11.3118C22.7483 11.2839 22.7126 11.2479 22.6851 11.206C22.6575 11.1641 22.6386 11.117 22.6296 11.0677C22.6205 11.0183 22.6215 10.9677 22.6323 10.9187C22.6432 10.8697 22.6638 10.8234 22.6929 10.7826L24.1929 8.54043C24.2377 8.47358 24.3027 8.42289 24.3785 8.39585C24.4542 8.36881 24.5367 8.36685 24.6137 8.39026C24.6906 8.41367 24.758 8.46122 24.8059 8.52587C24.8538 8.59052 24.8796 8.66885 24.8795 8.7493Z" fill="#514D56"/>
</svg>
