<svg width="55" height="36" viewBox="0 0 55 36" fill="none" xmlns="http://www.w3.org/2000/svg">
<g clip-path="url(#clip0_4281_5870)">
<path d="M49.8325 0H5.16748C3.92998 0.00126505 2.74352 0.490043 1.86848 1.35907C0.993433 2.22811 0.501274 3.4064 0.5 4.6354V31.3646C0.501697 32.5935 0.993993 33.7715 1.86895 34.6405C2.7439 35.5094 3.93011 35.9983 5.16748 36H49.8325C51.07 35.9987 52.2565 35.51 53.1315 34.6409C54.0066 33.7719 54.4987 32.5936 54.5 31.3646V4.6354C54.4987 3.4064 54.0066 2.22811 53.1315 1.35907C52.2565 0.490043 51.07 0.00126505 49.8325 0ZM52.896 31.3646C52.8952 32.1713 52.5722 32.9446 51.9978 33.515C51.4235 34.0854 50.6448 34.4062 49.8325 34.4071H5.16748C4.35524 34.4062 3.57651 34.0854 3.00217 33.515C2.42783 32.9446 2.10479 32.1713 2.10394 31.3646V4.6354C2.10479 3.82874 2.42783 3.05537 3.00217 2.48497C3.57651 1.91458 4.35524 1.59376 5.16748 1.59292H49.8325C50.6448 1.59376 51.4235 1.91458 51.9978 2.48497C52.5722 3.05537 52.8952 3.82874 52.896 4.6354V31.3646Z" fill="#514D56"/>
<path d="M49.3144 8.21875H29.2122C28.9995 8.21875 28.7955 8.30266 28.6451 8.45203C28.4947 8.60139 28.4102 8.80398 28.4102 9.01521C28.4102 9.22644 28.4947 9.42903 28.6451 9.57839C28.7955 9.72776 28.9995 9.81167 29.2122 9.81167H49.3144C49.5271 9.81167 49.7311 9.72776 49.8815 9.57839C50.0319 9.42903 50.1164 9.22644 50.1164 9.01521C50.1164 8.80398 50.0319 8.60139 49.8815 8.45203C49.7311 8.30266 49.5271 8.21875 49.3144 8.21875Z" fill="#514D56"/>
<path d="M49.3145 13.9961H44.8234C44.6107 13.9961 44.4067 14.08 44.2563 14.2294C44.1059 14.3787 44.0214 14.5813 44.0214 14.7926C44.0214 15.0038 44.1059 15.2064 44.2563 15.3557C44.4067 15.5051 44.6107 15.589 44.8234 15.589H49.3145C49.5272 15.589 49.7311 15.5051 49.8815 15.3557C50.0319 15.2064 50.1164 15.0038 50.1164 14.7926C50.1164 14.5813 50.0319 14.3787 49.8815 14.2294C49.7311 14.08 49.5272 13.9961 49.3145 13.9961Z" fill="#514D56"/>
<path d="M29.2122 15.589H41.6155C41.8282 15.589 42.0322 15.5051 42.1826 15.3557C42.333 15.2064 42.4175 15.0038 42.4175 14.7926C42.4175 14.5813 42.333 14.3787 42.1826 14.2294C42.0322 14.08 41.8282 13.9961 41.6155 13.9961H29.2122C28.9995 13.9961 28.7955 14.08 28.6451 14.2294C28.4947 14.3787 28.4102 14.5813 28.4102 14.7926C28.4102 15.0038 28.4947 15.2064 28.6451 15.3557C28.7955 15.5051 28.9995 15.589 29.2122 15.589Z" fill="#514D56"/>
<path d="M49.3144 19.7734H29.2122C28.9995 19.7734 28.7955 19.8573 28.6451 20.0067C28.4947 20.1561 28.4102 20.3587 28.4102 20.5699C28.4102 20.7811 28.4947 20.9837 28.6451 21.1331C28.7955 21.2824 28.9995 21.3664 29.2122 21.3664H49.3144C49.5271 21.3664 49.7311 21.2824 49.8815 21.1331C50.0319 20.9837 50.1164 20.7811 50.1164 20.5699C50.1164 20.3587 50.0319 20.1561 49.8815 20.0067C49.7311 19.8573 49.5271 19.7734 49.3144 19.7734Z" fill="#514D56"/>
<path d="M40.119 25.5527H29.2122C28.9995 25.5527 28.7955 25.6366 28.6451 25.786C28.4947 25.9354 28.4102 26.138 28.4102 26.3492C28.4102 26.5604 28.4947 26.763 28.6451 26.9124C28.7955 27.0617 28.9995 27.1457 29.2122 27.1457H40.119C40.3317 27.1457 40.5357 27.0617 40.6861 26.9124C40.8365 26.763 40.921 26.5604 40.921 26.3492C40.921 26.138 40.8365 25.9354 40.6861 25.786C40.5357 25.6366 40.3317 25.5527 40.119 25.5527Z" fill="#514D56"/>
<path d="M9.58956 25.1686C9.58956 25.3798 9.67405 25.5824 9.82445 25.7318C9.97485 25.8811 10.1788 25.9651 10.3915 25.9651C10.6042 25.9651 10.8082 25.8811 10.9586 25.7318C11.109 25.5824 11.1935 25.3798 11.1935 25.1686C11.1935 24.1124 11.616 23.0995 12.368 22.3527C13.12 21.6059 14.1399 21.1863 15.2034 21.1863C16.2668 21.1863 17.2868 21.6059 18.0388 22.3527C18.7908 23.0995 19.2132 24.1124 19.2132 25.1686C19.2132 25.3798 19.2977 25.5824 19.4481 25.7318C19.5985 25.8811 19.8025 25.9651 20.0152 25.9651C20.2279 25.9651 20.4319 25.8811 20.5823 25.7318C20.7327 25.5824 20.8172 25.3798 20.8172 25.1686C20.8167 24.2061 20.5653 23.26 20.0875 22.4226C19.6097 21.5852 18.9217 20.8849 18.0905 20.3898C19.1435 19.7627 19.9604 18.8101 20.4161 17.6778C20.8719 16.5455 20.9413 15.2961 20.6137 14.1209C20.2861 12.9457 19.5795 11.9096 18.6023 11.1713C17.6252 10.433 16.4312 10.0332 15.2034 10.0332C13.9755 10.0332 12.7816 10.433 11.8044 11.1713C10.8272 11.9096 10.1207 12.9457 9.79307 14.1209C9.46547 15.2961 9.53485 16.5455 9.99058 17.6778C10.4463 18.8101 11.2633 19.7627 12.3163 20.3898C11.4851 20.8849 10.7971 21.5852 10.3192 22.4226C9.8414 23.26 9.59002 24.2061 9.58956 25.1686ZM11.1935 15.6111C11.1935 14.8235 11.4287 14.0535 11.8693 13.3986C12.3099 12.7437 12.9361 12.2333 13.6689 11.9319C14.4016 11.6305 15.2078 11.5516 15.9856 11.7053C16.7635 11.859 17.478 12.2382 18.0388 12.7952C18.5996 13.3521 18.9815 14.0617 19.1362 14.8342C19.2909 15.6067 19.2115 16.4074 18.908 17.135C18.6045 17.8627 18.0905 18.4847 17.4311 18.9222C16.7717 19.3598 15.9964 19.5934 15.2034 19.5934C14.1399 19.5934 13.12 19.1738 12.368 18.427C11.616 17.6802 11.1935 16.6673 11.1935 15.6111Z" fill="#514D56"/>
<path d="M24.5062 6.37109H5.90048C5.68779 6.37109 5.4838 6.45501 5.3334 6.60437C5.183 6.75374 5.09851 6.95632 5.09851 7.16755V28.1941C5.09851 28.4053 5.183 28.6079 5.3334 28.7573C5.4838 28.9067 5.68779 28.9906 5.90048 28.9906H24.5062C24.7189 28.9906 24.9229 28.9067 25.0733 28.7573C25.2237 28.6079 25.3082 28.4053 25.3082 28.1941V7.16755C25.3082 6.95632 25.2237 6.75374 25.0733 6.60437C24.9229 6.45501 24.7189 6.37109 24.5062 6.37109ZM23.7043 27.3976H6.70245V7.96401H23.7043V27.3976Z" fill="#514D56"/>
<path d="M25.2842 4.01034C24.5742 3.86315 23.923 3.51349 23.4102 3.0042C22.8973 2.49492 22.5453 1.84812 22.3971 1.14309C22.3791 1.0574 22.332 0.980463 22.2637 0.925231C22.1953 0.869999 22.1099 0.839844 22.0217 0.839844C21.9336 0.839844 21.8482 0.869999 21.7798 0.925231C21.7115 0.980463 21.6643 1.0574 21.6464 1.14309C21.498 1.84804 21.1459 2.49473 20.6331 3.00398C20.1203 3.51323 19.4691 3.86296 18.7593 4.01034C18.6735 4.02892 18.5966 4.0761 18.5415 4.14405C18.4864 4.212 18.4563 4.29663 18.4563 4.38388C18.4563 4.47114 18.4864 4.55577 18.5415 4.62372C18.5966 4.69167 18.6735 4.73885 18.7593 4.75742C19.4691 4.90481 20.1203 5.25453 20.6331 5.76378C21.1459 6.27304 21.498 6.91973 21.6464 7.62468C21.6643 7.71037 21.7115 7.78731 21.7798 7.84254C21.8482 7.89777 21.9336 7.92792 22.0217 7.92792C22.1099 7.92792 22.1953 7.89777 22.2637 7.84254C22.332 7.78731 22.3791 7.71037 22.3971 7.62468C22.5453 6.91964 22.8973 6.27285 23.4102 5.76357C23.923 5.25428 24.5742 4.90462 25.2842 4.75742C25.37 4.73885 25.4469 4.69167 25.502 4.62372C25.5571 4.55577 25.5872 4.47114 25.5872 4.38388C25.5872 4.29663 25.5571 4.212 25.502 4.14405C25.4469 4.0761 25.37 4.02892 25.2842 4.01034Z" fill="#FFCB04"/>
<path d="M24.649 10.3087C24.3155 10.2382 24.0097 10.0733 23.7686 9.83385C23.5275 9.5944 23.3614 9.2907 23.2904 8.95949C23.2725 8.8738 23.2254 8.79687 23.157 8.74163C23.0887 8.6864 23.0032 8.65625 22.9151 8.65625C22.827 8.65625 22.7416 8.6864 22.6732 8.74163C22.6048 8.79687 22.5577 8.8738 22.5398 8.95949C22.4688 9.2907 22.3028 9.5944 22.0617 9.83385C21.8206 10.0733 21.5148 10.2382 21.1813 10.3087C21.095 10.3265 21.0175 10.3733 20.9619 10.4412C20.9063 10.5091 20.8759 10.5939 20.8759 10.6814C20.8759 10.769 20.9063 10.8538 20.9619 10.9217C21.0175 10.9896 21.095 11.0364 21.1813 11.0542C21.5148 11.1247 21.8206 11.2896 22.0617 11.529C22.3028 11.7685 22.4688 12.0722 22.5398 12.4034C22.5577 12.4891 22.6048 12.566 22.6732 12.6212C22.7416 12.6765 22.827 12.7066 22.9151 12.7066C23.0032 12.7066 23.0887 12.6765 23.157 12.6212C23.2254 12.566 23.2725 12.4891 23.2904 12.4034C23.3614 12.0722 23.5275 11.7685 23.7686 11.529C24.0097 11.2896 24.3155 11.1247 24.649 11.0542C24.7353 11.0364 24.8127 10.9896 24.8683 10.9217C24.924 10.8538 24.9543 10.769 24.9543 10.6814C24.9543 10.5939 24.924 10.5091 24.8683 10.4412C24.8127 10.3733 24.7353 10.3265 24.649 10.3087Z" fill="#FFCB04"/>
<path d="M29.8361 6.77912C29.3847 6.68517 28.9706 6.46264 28.6444 6.13873C28.3183 5.81482 28.0942 5.40356 27.9996 4.95522C27.9809 4.86997 27.9334 4.79363 27.865 4.73889C27.7966 4.68415 27.7114 4.6543 27.6235 4.6543C27.5356 4.6543 27.4504 4.68415 27.382 4.73889C27.3136 4.79363 27.2661 4.86997 27.2474 4.95522C27.1531 5.40344 26.9293 5.81465 26.6034 6.13857C26.2776 6.46249 25.8637 6.68508 25.4125 6.77912C25.3262 6.79692 25.2487 6.84371 25.1931 6.9116C25.1375 6.97949 25.1071 7.06434 25.1071 7.15186C25.1071 7.23938 25.1375 7.32423 25.1931 7.39212C25.2487 7.46001 25.3262 7.5068 25.4125 7.5246C25.8636 7.61883 26.2774 7.84148 26.6032 8.16537C26.9291 8.48926 27.1529 8.90037 27.2474 9.3485C27.2661 9.43375 27.3136 9.51009 27.382 9.56483C27.4504 9.61957 27.5356 9.64942 27.6235 9.64942C27.7114 9.64942 27.7966 9.61957 27.865 9.56483C27.9334 9.51009 27.9809 9.43375 27.9996 9.3485C28.0942 8.90016 28.3183 8.4889 28.6444 8.16499C28.9706 7.84108 29.3847 7.61855 29.8361 7.5246C29.9224 7.5068 29.9999 7.46001 30.0555 7.39212C30.1111 7.32423 30.1415 7.23938 30.1415 7.15186C30.1415 7.06434 30.1111 6.97949 30.0555 6.9116C29.9999 6.84371 29.9224 6.79692 29.8361 6.77912Z" fill="#FFCB04"/>
</g>
<defs>
<clipPath id="clip0_4281_5870">
<rect width="54" height="36" fill="white" transform="translate(0.5)"/>
</clipPath>
</defs>
</svg>
